<svg width="50" height="50" viewBox="0 0 50 50" fill="none" xmlns="http://www.w3.org/2000/svg">
<g id="libraries">
<path id="Shape" fill-rule="evenodd" clip-rule="evenodd" d="M22.5093 15C21.8644 15 21.4282 15.5621 21.4282 16.1149V33.8767C21.4282 34.4295 21.8644 35 22.5093 35H25.7525C26.3975 35 26.8336 34.4295 26.8336 33.8767V16.1149C26.8336 15.5621 26.3975 15 25.7525 15H22.5093ZM23.0498 16.6216H25.212V18.7837H23.0498V16.6216ZM15.4522 17.1621C14.8673 17.1621 14.3711 17.6583 14.3711 18.2432V33.9189C14.3711 34.5038 14.8673 34.9999 15.4522 34.9999H18.6954C19.2803 34.9999 19.7765 34.5038 19.7765 33.9189V18.2432C19.7765 17.6583 19.2803 17.1621 18.6954 17.1621H15.4522ZM15.9927 18.7838H18.1548V20.4054H15.9927V18.7838ZM23.0498 20.4054H25.212V29.5946H23.0498V20.4054ZM15.9927 22.027H18.1548V30.1351H15.9927V22.027ZM23.0498 31.2162H25.212V33.3783H23.0498V31.2162ZM15.9927 31.7567H18.1548V33.3783H15.9927V31.7567ZM31.5234 31.698L33.656 31.3414L33.9234 32.9409L31.7908 33.2974L31.5234 31.698ZM32.3188 23.3444L33.3885 29.742L31.2559 30.0986L30.1863 23.7009L32.3188 23.3444ZM29.6516 20.5021L31.7842 20.1455L32.0516 21.7449L29.919 22.1015L29.6516 20.5021ZM28.8509 18.9918C28.3036 19.0833 27.8587 19.6129 27.9587 20.2114L30.2833 34.1147C30.3833 34.7132 30.9777 35.0775 31.525 34.986L34.7239 34.4512C35.2712 34.3597 35.7147 33.8218 35.6147 33.2233L33.2901 19.32C33.1901 18.7215 32.597 18.3655 32.0497 18.457L28.8509 18.9918Z" fill="black"/>
</g>
</svg>
