<svg width="40" height="40" viewBox="0 0 40 40" fill="none" xmlns="http://www.w3.org/2000/svg">
<g id="notifications">
<path id="Shape" fill-rule="evenodd" clip-rule="evenodd" d="M28.2502 24.5002L27.2419 23.4232V19.8025C27.2458 16.9762 25.5581 14.422 22.9567 13.3173V12.9048C23.0502 11.9004 22.5672 10.9296 21.7096 10.3984C20.852 9.86721 19.7677 9.86721 18.9101 10.3984C18.0526 10.9296 17.5695 11.9004 17.6631 12.9048V13.3173C15.0527 14.4149 13.3549 16.9707 13.3549 19.8025V23.4002L12.3466 24.4773C11.8562 25.0134 11.7286 25.7885 12.0214 26.4535C12.3142 27.1185 12.9721 27.5478 13.6987 27.548H17.1589C17.5151 28.9817 18.7983 29.9912 20.2755 30H20.3213C21.7919 29.9939 23.0729 28.9955 23.4379 27.5709H26.9211C27.6477 27.5707 28.3056 27.1414 28.5983 26.4764C28.8911 25.8114 28.7636 25.0363 28.2731 24.5002H28.2502ZM19.0151 12.9048C18.9485 12.4097 19.1753 11.9209 19.5964 11.6521C20.0175 11.3832 20.5564 11.3832 20.9775 11.6521C21.3986 11.9209 21.6254 12.4097 21.5588 12.9048C20.7184 12.745 19.8555 12.745 19.0151 12.9048ZM20.3214 28.648H20.2756C19.5617 28.6476 18.9112 28.2377 18.6028 27.5939H21.9943C21.6793 28.2288 21.0302 28.6289 20.3214 28.6251V28.648ZM27.3336 25.921C27.2668 26.0896 27.1024 26.1992 26.9211 26.196H13.6757C13.4882 26.2028 13.3154 26.0946 13.2397 25.9229C13.1639 25.7512 13.2005 25.5507 13.332 25.4168L14.5236 24.1335C14.6393 24.0087 14.7047 23.8454 14.7069 23.6752V19.8024C14.7069 17.813 15.7683 15.9747 17.4912 14.9799C19.2141 13.9852 21.3368 13.9852 23.0598 14.9799C24.7827 15.9747 25.844 17.813 25.844 19.8024V23.6752C25.8463 23.8454 25.9116 24.0087 26.0274 24.1335L27.219 25.4168C27.3636 25.5415 27.4101 25.746 27.3336 25.921Z" fill="black"/>
</g>
</svg>
