<svg width="40" height="40" viewBox="0 0 40 40" fill="none" xmlns="http://www.w3.org/2000/svg">
<g id="search">
<path id="Shape" fill-rule="evenodd" clip-rule="evenodd" d="M19.2818 26.7779C20.8124 26.7779 22.2253 26.2598 23.3556 25.4121L26.1578 28.2143L27.5 26.8721L24.6978 24.0699C25.5455 22.9396 26.0636 21.5267 26.0636 19.9961C26.0636 16.252 23.0259 13.2143 19.2818 13.2143C15.5377 13.2143 12.5 16.252 12.5 19.9961C12.5 23.7402 15.5377 26.7779 19.2818 26.7779ZM19.2818 15.0981C21.9898 15.0981 24.1797 17.2881 24.1797 19.9961C24.1797 22.7041 21.9898 24.894 19.2818 24.894C16.5738 24.894 14.3838 22.7041 14.3838 19.9961C14.3838 17.2881 16.5738 15.0981 19.2818 15.0981Z" fill="black"/>
</g>
</svg>
